<svg width="168" height="24" viewBox="0 0 168 24" fill="none" xmlns="http://www.w3.org/2000/svg">
<g id="Logo">
<g id="care">
<path d="M8.16 6.94336C9.184 6.94336 10.1227 7.06069 10.976 7.29536C11.8293 7.50869 12.512 7.80736 13.024 8.19136C13.5573 8.57536 13.824 8.99136 13.824 9.43936C13.824 9.65269 13.7493 9.86602 13.6 10.0794C13.4507 10.2714 13.248 10.3674 12.992 10.3674C12.736 10.3674 12.5227 10.3034 12.352 10.1754C12.2027 10.0474 12.0427 9.89803 11.872 9.72736C11.7227 9.55669 11.4987 9.39669 11.2 9.24736C10.9227 9.11936 10.528 9.00203 10.016 8.89536C9.504 8.78869 8.91733 8.73536 8.256 8.73536C7.06133 8.73536 5.984 9.03403 5.024 9.63136C4.064 10.2287 3.30667 11.0394 2.752 12.0634C2.19733 13.066 1.92 14.1967 1.92 15.4554C1.92 16.7354 2.18667 17.8874 2.72 18.9114C3.25333 19.9354 3.98933 20.746 4.928 21.3434C5.86667 21.9194 6.96533 22.2074 8.224 22.2074C9.07733 22.2074 9.73867 22.1327 10.208 21.9834C10.6773 21.834 11.0827 21.6634 11.424 21.4714C11.8293 21.2367 12.1173 21.0127 12.288 20.7994C12.48 20.5647 12.7253 20.4474 13.024 20.4474C13.3013 20.4474 13.504 20.5327 13.632 20.7034C13.7813 20.8527 13.856 21.0554 13.856 21.3114C13.856 21.6527 13.6 22.0367 13.088 22.4634C12.5973 22.8687 11.9147 23.2314 11.04 23.5514C10.1653 23.85 9.16267 23.9994 8.032 23.9994C6.432 23.9994 5.024 23.626 3.808 22.8794C2.61333 22.1327 1.67467 21.1194 0.992 19.8394C0.330667 18.538 0 17.0767 0 15.4554C0 13.898 0.341333 12.4794 1.024 11.1994C1.70667 9.91936 2.656 8.89536 3.872 8.12736C5.10933 7.33803 6.53867 6.94336 8.16 6.94336Z" fill="#7A007A"/>
<path d="M30.048 7.32736C30.3254 7.32736 30.5494 7.42336 30.72 7.61536C30.912 7.80736 31.008 8.04203 31.008 8.31936V22.7194C31.008 22.9754 30.912 23.1994 30.72 23.3914C30.528 23.5834 30.304 23.6794 30.048 23.6794C29.7707 23.6794 29.536 23.5834 29.344 23.3914C29.1734 23.1994 29.088 22.9754 29.088 22.7194V18.9114L29.632 18.6554C29.632 19.2527 29.4614 19.8607 29.12 20.4794C28.8 21.098 28.352 21.674 27.776 22.2074C27.2 22.7407 26.5174 23.178 25.728 23.5194C24.96 23.8394 24.128 23.9994 23.232 23.9994C21.7814 23.9994 20.48 23.626 19.328 22.8794C18.1974 22.1327 17.3014 21.1087 16.64 19.8074C16 18.506 15.68 17.0447 15.68 15.4234C15.68 13.7594 16.0107 12.298 16.672 11.0394C17.3334 9.75936 18.2294 8.75669 19.36 8.03136C20.4907 7.30603 21.7707 6.94336 23.2 6.94336C24.1174 6.94336 24.9707 7.10336 25.76 7.42336C26.5707 7.74336 27.2747 8.18069 27.872 8.73536C28.4694 9.29002 28.928 9.93003 29.248 10.6554C29.5894 11.3594 29.76 12.0954 29.76 12.8634L29.088 12.3834V8.31936C29.088 8.04203 29.1734 7.80736 29.344 7.61536C29.536 7.42336 29.7707 7.32736 30.048 7.32736ZM23.392 22.2074C24.5227 22.2074 25.5254 21.9194 26.4 21.3434C27.2747 20.746 27.9574 19.9354 28.448 18.9114C28.96 17.866 29.216 16.7034 29.216 15.4234C29.216 14.1647 28.96 13.034 28.448 12.0314C27.9574 11.0287 27.2747 10.2287 26.4 9.63136C25.5254 9.03403 24.5227 8.73536 23.392 8.73536C22.2827 8.73536 21.28 9.02336 20.384 9.59936C19.5094 10.1754 18.816 10.9647 18.304 11.9674C17.8134 12.97 17.568 14.122 17.568 15.4234C17.568 16.7034 17.8134 17.866 18.304 18.9114C18.816 19.9354 19.5094 20.746 20.384 21.3434C21.2587 21.9194 22.2614 22.2074 23.392 22.2074Z" fill="#7A007A"/>
<path d="M36.1238 23.6794C35.8251 23.6794 35.5905 23.5834 35.4198 23.3914C35.2491 23.1994 35.1638 22.9754 35.1638 22.7194V8.38336C35.1638 8.12736 35.2491 7.90336 35.4198 7.71136C35.6118 7.51936 35.8465 7.42336 36.1238 7.42336C36.4011 7.42336 36.6251 7.51936 36.7958 7.71136C36.9878 7.90336 37.0838 8.12736 37.0838 8.38336V13.1834L36.6038 13.2794C36.6678 12.5327 36.8491 11.7967 37.1478 11.0714C37.4678 10.3247 37.8945 9.64203 38.4278 9.02336C38.9611 8.40469 39.5905 7.90336 40.3158 7.51936C41.0625 7.13536 41.8945 6.94336 42.8118 6.94336C43.1958 6.94336 43.5691 7.02869 43.9318 7.19936C44.2945 7.34869 44.4758 7.60469 44.4758 7.96736C44.4758 8.28736 44.3905 8.53269 44.2198 8.70336C44.0491 8.87403 43.8465 8.95936 43.6118 8.95936C43.4198 8.95936 43.2065 8.90603 42.9718 8.79936C42.7585 8.69269 42.4705 8.63936 42.1078 8.63936C41.5105 8.63936 40.9131 8.82069 40.3158 9.18336C39.7185 9.52469 39.1745 9.99403 38.6838 10.5914C38.1931 11.1887 37.7985 11.8607 37.4998 12.6074C37.2225 13.3327 37.0838 14.0687 37.0838 14.8154V22.7194C37.0838 22.9754 36.9878 23.1994 36.7958 23.3914C36.6038 23.5834 36.3798 23.6794 36.1238 23.6794Z" fill="#7A007A"/>
<path d="M53.2671 23.9994C51.6244 23.9994 50.1737 23.6474 48.9151 22.9434C47.6564 22.2394 46.6751 21.258 45.9711 19.9994C45.2671 18.7407 44.9151 17.2687 44.9151 15.5834C44.9151 13.77 45.2671 12.2234 45.9711 10.9434C46.6964 9.66336 47.6244 8.68202 48.7551 7.99936C49.9071 7.29536 51.1231 6.94336 52.4031 6.94336C53.3417 6.94336 54.2484 7.11402 55.1231 7.45536C56.0191 7.77536 56.8084 8.26603 57.4911 8.92736C58.1951 9.56736 58.7497 10.3567 59.1551 11.2954C59.5817 12.234 59.8164 13.322 59.8591 14.5594C59.8377 14.8154 59.7311 15.0394 59.5391 15.2314C59.3471 15.402 59.1231 15.4874 58.8671 15.4874H46.0351L45.6511 13.7594H58.2591L57.8431 14.1434V13.5034C57.7577 12.5007 57.4377 11.6474 56.8831 10.9434C56.3284 10.2394 55.6564 9.70603 54.8671 9.34336C54.0777 8.98069 53.2564 8.79936 52.4031 8.79936C51.7631 8.79936 51.1017 8.92736 50.4191 9.18336C49.7577 9.43936 49.1497 9.84469 48.5951 10.3994C48.0617 10.9327 47.6244 11.626 47.2831 12.4794C46.9417 13.3114 46.7711 14.3034 46.7711 15.4554C46.7711 16.714 47.0271 17.8554 47.5391 18.8794C48.0511 19.9034 48.7871 20.714 49.7471 21.3114C50.7284 21.9087 51.8911 22.2074 53.2351 22.2074C53.9817 22.2074 54.6537 22.1007 55.2511 21.8874C55.8484 21.674 56.3711 21.3967 56.8191 21.0554C57.2671 20.6927 57.6404 20.3194 57.9391 19.9354C58.1737 19.7434 58.4084 19.6474 58.6431 19.6474C58.8564 19.6474 59.0377 19.7327 59.1871 19.9034C59.3577 20.074 59.4431 20.266 59.4431 20.4794C59.4431 20.7354 59.3364 20.9594 59.1231 21.1514C58.4831 21.9194 57.6511 22.5914 56.6271 23.1674C55.6031 23.722 54.4831 23.9994 53.2671 23.9994Z" fill="#7A007A"/>
</g>
<g id="solace">
<path d="M79.4542 21.088C79.2836 20.832 79.1982 20.5867 79.1982 20.352C79.2196 20.096 79.3582 19.8933 79.6142 19.744C79.7849 19.5947 79.9769 19.5307 80.1902 19.552C80.4249 19.5733 80.6382 19.68 80.8302 19.872C81.4062 20.6187 82.0996 21.2267 82.9102 21.696C83.7422 22.144 84.7236 22.368 85.8542 22.368C86.4516 22.368 87.0382 22.272 87.6142 22.08C88.2116 21.8667 88.7022 21.5573 89.0862 21.152C89.4702 20.7253 89.6622 20.192 89.6622 19.552C89.6622 18.8907 89.4702 18.3573 89.0862 17.952C88.7022 17.5467 88.2009 17.2267 87.5822 16.992C86.9849 16.7573 86.3449 16.5547 85.6622 16.384C84.9369 16.192 84.2329 15.9787 83.5502 15.744C82.8676 15.488 82.2596 15.1787 81.7262 14.816C81.2142 14.432 80.7982 13.9733 80.4782 13.44C80.1582 12.9067 79.9982 12.256 79.9982 11.488C79.9982 10.592 80.2436 9.80267 80.7342 9.12C81.2249 8.43733 81.8862 7.904 82.7182 7.52C83.5716 7.136 84.5316 6.944 85.5982 6.944C86.1316 6.944 86.7076 7.01867 87.3262 7.168C87.9449 7.296 88.5529 7.52 89.1502 7.84C89.7476 8.16 90.2809 8.59733 90.7502 9.152C90.9422 9.344 91.0382 9.568 91.0382 9.824C91.0382 10.0587 90.9316 10.272 90.7182 10.464C90.5476 10.592 90.3449 10.656 90.1102 10.656C89.8969 10.656 89.7156 10.5707 89.5662 10.4C89.0542 9.824 88.4462 9.38667 87.7422 9.088C87.0382 8.78933 86.2809 8.64 85.4702 8.64C84.8516 8.64 84.2649 8.74667 83.7102 8.96C83.1769 9.152 82.7289 9.45066 82.3662 9.856C82.0036 10.2613 81.8222 10.7947 81.8222 11.456C81.8649 12.0747 82.0782 12.576 82.4622 12.96C82.8676 13.344 83.3902 13.664 84.0302 13.92C84.6916 14.176 85.4276 14.4107 86.2382 14.624C86.9209 14.7947 87.5716 14.9973 88.1902 15.232C88.8302 15.4667 89.3849 15.7653 89.8542 16.128C90.3449 16.4693 90.7289 16.9067 91.0062 17.44C91.3049 17.9733 91.4542 18.6453 91.4542 19.456C91.4542 20.3947 91.1876 21.2053 90.6542 21.888C90.1422 22.5707 89.4489 23.0933 88.5742 23.456C87.6996 23.8187 86.7289 24 85.6622 24C84.5102 24 83.3902 23.776 82.3022 23.328C81.2356 22.88 80.2862 22.1333 79.4542 21.088Z" fill="#7A007A"/>
<path d="M109.732 15.488C109.732 17.1093 109.38 18.5707 108.676 19.872C107.972 21.152 107.012 22.1653 105.796 22.912C104.58 23.6373 103.193 24 101.636 24C100.121 24 98.7451 23.6373 97.5078 22.912C96.2918 22.1653 95.3211 21.152 94.5958 19.872C93.8918 18.5707 93.5398 17.1093 93.5398 15.488C93.5398 13.8453 93.8918 12.384 94.5958 11.104C95.3211 9.824 96.2918 8.81067 97.5078 8.064C98.7451 7.31733 100.121 6.944 101.636 6.944C103.193 6.944 104.58 7.31733 105.796 8.064C107.012 8.81067 107.972 9.824 108.676 11.104C109.38 12.384 109.732 13.8453 109.732 15.488ZM107.812 15.488C107.812 14.1867 107.545 13.0347 107.012 12.032C106.478 11.008 105.742 10.208 104.804 9.632C103.886 9.03467 102.83 8.736 101.636 8.736C100.484 8.736 99.4384 9.03467 98.4998 9.632C97.5611 10.208 96.8144 11.008 96.2598 12.032C95.7264 13.0347 95.4598 14.1867 95.4598 15.488C95.4598 16.7893 95.7264 17.9413 96.2598 18.944C96.8144 19.9467 97.5611 20.7467 98.4998 21.344C99.4384 21.92 100.484 22.208 101.636 22.208C102.83 22.208 103.886 21.92 104.804 21.344C105.742 20.7467 106.478 19.9467 107.012 18.944C107.545 17.9413 107.812 16.7893 107.812 15.488Z" fill="#7A007A"/>
<path d="M115.042 22.72C115.042 22.976 114.946 23.2 114.754 23.392C114.562 23.584 114.338 23.68 114.082 23.68C113.804 23.68 113.57 23.584 113.378 23.392C113.207 23.2 113.122 22.976 113.122 22.72V0.959999C113.122 0.703999 113.218 0.479999 113.41 0.288C113.602 0.0959998 113.826 0 114.082 0C114.359 0 114.583 0.0959998 114.754 0.288C114.946 0.479999 115.042 0.703999 115.042 0.959999V22.72Z" fill="#7A007A"/>
<path d="M132.83 7.328C133.108 7.328 133.332 7.424 133.502 7.616C133.694 7.808 133.79 8.04267 133.79 8.32V22.72C133.79 22.976 133.694 23.2 133.502 23.392C133.31 23.584 133.086 23.68 132.83 23.68C132.553 23.68 132.318 23.584 132.126 23.392C131.956 23.2 131.87 22.976 131.87 22.72V18.912L132.414 18.656C132.414 19.2533 132.244 19.8613 131.902 20.48C131.582 21.0987 131.134 21.6747 130.558 22.208C129.982 22.7413 129.3 23.1787 128.51 23.52C127.742 23.84 126.91 24 126.014 24C124.564 24 123.262 23.6267 122.11 22.88C120.98 22.1333 120.084 21.1093 119.422 19.808C118.782 18.5067 118.462 17.0453 118.462 15.424C118.462 13.76 118.793 12.2987 119.454 11.04C120.116 9.76 121.012 8.75733 122.142 8.032C123.273 7.30667 124.553 6.944 125.982 6.944C126.9 6.944 127.753 7.104 128.542 7.424C129.353 7.744 130.057 8.18133 130.654 8.736C131.252 9.29066 131.71 9.93067 132.03 10.656C132.372 11.36 132.542 12.096 132.542 12.864L131.87 12.384V8.32C131.87 8.04267 131.956 7.808 132.126 7.616C132.318 7.424 132.553 7.328 132.83 7.328ZM126.174 22.208C127.305 22.208 128.308 21.92 129.182 21.344C130.057 20.7467 130.74 19.936 131.23 18.912C131.742 17.8667 131.998 16.704 131.998 15.424C131.998 14.1653 131.742 13.0347 131.23 12.032C130.74 11.0293 130.057 10.2293 129.182 9.632C128.308 9.03467 127.305 8.736 126.174 8.736C125.065 8.736 124.062 9.024 123.166 9.6C122.292 10.176 121.598 10.9653 121.086 11.968C120.596 12.9707 120.35 14.1227 120.35 15.424C120.35 16.704 120.596 17.8667 121.086 18.912C121.598 19.936 122.292 20.7467 123.166 21.344C124.041 21.92 125.044 22.208 126.174 22.208Z" fill="#7A007A"/>
<path d="M145.146 6.944C146.17 6.944 147.109 7.06133 147.962 7.296C148.815 7.50933 149.498 7.808 150.01 8.192C150.543 8.576 150.81 8.992 150.81 9.44C150.81 9.65333 150.735 9.86666 150.586 10.08C150.437 10.272 150.234 10.368 149.978 10.368C149.722 10.368 149.509 10.304 149.338 10.176C149.189 10.048 149.029 9.89867 148.858 9.728C148.709 9.55733 148.485 9.39733 148.186 9.248C147.909 9.12 147.514 9.00267 147.002 8.896C146.49 8.78933 145.903 8.736 145.242 8.736C144.047 8.736 142.97 9.03467 142.01 9.632C141.05 10.2293 140.293 11.04 139.738 12.064C139.183 13.0667 138.906 14.1973 138.906 15.456C138.906 16.736 139.173 17.888 139.706 18.912C140.239 19.936 140.975 20.7467 141.914 21.344C142.853 21.92 143.951 22.208 145.21 22.208C146.063 22.208 146.725 22.1333 147.194 21.984C147.663 21.8347 148.069 21.664 148.41 21.472C148.815 21.2373 149.103 21.0133 149.274 20.8C149.466 20.5653 149.711 20.448 150.01 20.448C150.287 20.448 150.49 20.5333 150.618 20.704C150.767 20.8533 150.842 21.056 150.842 21.312C150.842 21.6533 150.586 22.0373 150.074 22.464C149.583 22.8693 148.901 23.232 148.026 23.552C147.151 23.8507 146.149 24 145.018 24C143.418 24 142.01 23.6267 140.794 22.88C139.599 22.1333 138.661 21.12 137.978 19.84C137.317 18.5387 136.986 17.0773 136.986 15.456C136.986 13.8987 137.327 12.48 138.01 11.2C138.693 9.92 139.642 8.896 140.858 8.128C142.095 7.33867 143.525 6.944 145.146 6.944Z" fill="#7A007A"/>
<path d="M161.018 24C159.375 24 157.925 23.648 156.666 22.944C155.407 22.24 154.426 21.2587 153.722 20C153.018 18.7413 152.666 17.2693 152.666 15.584C152.666 13.7707 153.018 12.224 153.722 10.944C154.447 9.664 155.375 8.68266 156.506 8C157.658 7.296 158.874 6.944 160.154 6.944C161.093 6.944 161.999 7.11467 162.874 7.456C163.77 7.776 164.559 8.26667 165.242 8.928C165.946 9.568 166.501 10.3573 166.906 11.296C167.333 12.2347 167.567 13.3227 167.61 14.56C167.589 14.816 167.482 15.04 167.29 15.232C167.098 15.4027 166.874 15.488 166.618 15.488H153.786L153.402 13.76H166.01L165.594 14.144V13.504C165.509 12.5013 165.189 11.648 164.634 10.944C164.079 10.24 163.407 9.70667 162.618 9.344C161.829 8.98133 161.007 8.8 160.154 8.8C159.514 8.8 158.853 8.928 158.17 9.184C157.509 9.44 156.901 9.84533 156.346 10.4C155.813 10.9333 155.375 11.6267 155.034 12.48C154.693 13.312 154.522 14.304 154.522 15.456C154.522 16.7147 154.778 17.856 155.29 18.88C155.802 19.904 156.538 20.7147 157.498 21.312C158.479 21.9093 159.642 22.208 160.986 22.208C161.733 22.208 162.405 22.1013 163.002 21.888C163.599 21.6747 164.122 21.3973 164.57 21.056C165.018 20.6933 165.391 20.32 165.69 19.936C165.925 19.744 166.159 19.648 166.394 19.648C166.607 19.648 166.789 19.7333 166.938 19.904C167.109 20.0747 167.194 20.2667 167.194 20.48C167.194 20.736 167.087 20.96 166.874 21.152C166.234 21.92 165.402 22.592 164.378 23.168C163.354 23.7227 162.234 24 161.018 24Z" fill="#7A007A"/>
</g>
<path id="Vector 1 (Stroke)" fill-rule="evenodd" clip-rule="evenodd" d="M78.2929 7.23502C78.3333 7.72071 77.9724 8.14726 77.4867 8.18773C69.3713 8.86402 63.7934 14.4073 61.8322 17.4893C61.5705 17.9005 61.0251 18.0217 60.6139 17.76C60.2027 17.4984 60.0815 16.9529 60.3432 16.5417C62.5001 13.1522 68.5121 7.16455 77.3402 6.42888C77.8258 6.3884 78.2524 6.74933 78.2929 7.23502Z" fill="#7A007A"/>
</g>
</svg>
