<svg width="32" height="32" viewBox="0 0 32 32" fill="none" xmlns="http://www.w3.org/2000/svg">
<g id="vuesax/bulk/personalcard">
<g id="personalcard">
<g id="personalcard_2">
<path id="Vector" opacity="0.4" d="M23.9998 4H7.99984C5.05317 4 2.6665 6.37333 2.6665 9.29333V22.7067C2.6665 25.6267 5.05317 28 7.99984 28H23.9998C26.9465 28 29.3332 25.6267 29.3332 22.7067V9.29333C29.3332 6.37333 26.9465 4 23.9998 4Z" fill="#DE8AED"/>
<path id="Vector_2" d="M25.3332 11.666H18.6665C18.1198 11.666 17.6665 11.2127 17.6665 10.666C17.6665 10.1193 18.1198 9.66602 18.6665 9.66602H25.3332C25.8798 9.66602 26.3332 10.1193 26.3332 10.666C26.3332 11.2127 25.8798 11.666 25.3332 11.666Z" fill="#7A007A"/>
<path id="Vector_3" d="M25.3333 17H20C19.4533 17 19 16.5467 19 16C19 15.4533 19.4533 15 20 15H25.3333C25.88 15 26.3333 15.4533 26.3333 16C26.3333 16.5467 25.88 17 25.3333 17Z" fill="#7A007A"/>
<path id="Vector_4" d="M25.3332 22.334H22.6665C22.1198 22.334 21.6665 21.8807 21.6665 21.334C21.6665 20.7873 22.1198 20.334 22.6665 20.334H25.3332C25.8798 20.334 26.3332 20.7873 26.3332 21.334C26.3332 21.8807 25.8798 22.334 25.3332 22.334Z" fill="#7A007A"/>
<path id="Vector_5" d="M11.3329 15.7205C13.034 15.7205 14.4129 14.3416 14.4129 12.6405C14.4129 10.9395 13.034 9.56055 11.3329 9.56055C9.63189 9.56055 8.25293 10.9395 8.25293 12.6405C8.25293 14.3416 9.63189 15.7205 11.3329 15.7205Z" fill="#7A007A"/>
<path id="Vector_6" d="M12.4 17.4797C11.6934 17.413 10.96 17.413 10.2534 17.4797C8.01337 17.693 6.21337 19.4664 6.00003 21.7064C5.9867 21.893 6.04003 22.0797 6.17337 22.213C6.3067 22.3464 6.48003 22.4397 6.6667 22.4397H16C16.1867 22.4397 16.3734 22.3597 16.4934 22.2264C16.6134 22.093 16.68 21.9064 16.6667 21.7197C16.44 19.4664 14.6534 17.693 12.4 17.4797Z" fill="#7A007A"/>
</g>
</g>
</g>
</svg>
