<svg width="24" height="24" viewBox="0 0 24 24" fill="none" xmlns="http://www.w3.org/2000/svg">
<g id="vuesax/bulk/user-octagon">
<g id="user-octagon">
<path id="Vector" opacity="0.4" d="M21.0802 8.58003V15.42C21.0802 16.54 20.4802 17.58 19.5102 18.15L13.5702 21.58C12.6002 22.14 11.4002 22.14 10.4202 21.58L4.48016 18.15C3.51016 17.59 2.91016 16.55 2.91016 15.42V8.58003C2.91016 7.46003 3.51016 6.41999 4.48016 5.84999L10.4202 2.42C11.3902 1.86 12.5902 1.86 13.5702 2.42L19.5102 5.84999C20.4802 6.41999 21.0802 7.45003 21.0802 8.58003Z" fill="#DE8AED"/>
<g id="Group">
<path id="Vector_2" d="M11.9999 11.9998C13.2867 11.9998 14.3299 10.9566 14.3299 9.6698C14.3299 8.38298 13.2867 7.33984 11.9999 7.33984C10.7131 7.33984 9.66992 8.38298 9.66992 9.6698C9.66992 10.9566 10.7131 11.9998 11.9999 11.9998Z" fill="#7A007A"/>
<path id="Vector_3" d="M14.6802 16.6603C15.4902 16.6603 15.9602 15.7604 15.5102 15.0904C14.8302 14.0804 13.5102 13.4004 12.0002 13.4004C10.4902 13.4004 9.17016 14.0804 8.49016 15.0904C8.04016 15.7604 8.51016 16.6603 9.32016 16.6603H14.6802Z" fill="#7A007A"/>
</g>
</g>
</g>
</svg>
