<svg width="40" height="40" viewBox="0 0 40 40" fill="none" xmlns="http://www.w3.org/2000/svg">
<g id="vuesax/bulk/user-add">
<g id="vuesax/bulk/user-add_2">
<g id="user-add">
<path id="Vector" opacity="0.4" d="M35.1501 35.834C35.1501 36.3007 34.7834 36.6673 34.3168 36.6673H5.68343C5.21676 36.6673 4.8501 36.3007 4.8501 35.834C4.8501 28.934 11.6501 23.334 20.0001 23.334C21.7168 23.334 23.3834 23.5673 24.9168 24.0173C23.9334 25.1839 23.3334 26.7007 23.3334 28.334C23.3334 29.584 23.6834 30.7673 24.3001 31.7673C24.6334 32.334 25.0668 32.8506 25.5668 33.2839C26.7334 34.3506 28.2834 35.0007 30.0001 35.0007C31.8668 35.0007 33.5501 34.234 34.7501 33.0006C35.0168 33.9006 35.1501 34.8507 35.1501 35.834Z" fill="#DE8AED"/>
<path id="Vector_2" d="M34.9499 23.8827C33.7499 22.516 31.9666 21.666 29.9999 21.666C28.1333 21.666 26.4333 22.4327 25.2166 23.6827C24.0499 24.8827 23.3333 26.5327 23.3333 28.3327C23.3333 29.5827 23.6832 30.766 24.2999 31.766C24.6332 32.3327 25.0666 32.8493 25.5666 33.2826C26.7332 34.3493 28.2833 34.9993 29.9999 34.9993C32.4333 34.9993 34.5499 33.6993 35.6999 31.766C36.0499 31.1993 36.3166 30.5493 36.4666 29.8827C36.5999 29.3827 36.6666 28.866 36.6666 28.3327C36.6666 26.6327 36.0166 25.066 34.9499 23.8827ZM32.4999 29.5493H31.2499V30.8494C31.2499 31.5327 30.6833 32.0994 29.9999 32.0994C29.3166 32.0994 28.7499 31.5327 28.7499 30.8494V29.5493H27.4999C26.8166 29.5493 26.2499 28.9827 26.2499 28.2993C26.2499 27.616 26.8166 27.0493 27.4999 27.0493H28.7499V25.866C28.7499 25.1827 29.3166 24.616 29.9999 24.616C30.6833 24.616 31.2499 25.1827 31.2499 25.866V27.0493H32.4999C33.1833 27.0493 33.7499 27.616 33.7499 28.2993C33.7499 28.9827 33.1833 29.5493 32.4999 29.5493Z" fill="#7A007A"/>
<path id="Vector_3" d="M20.0001 20.0007C24.6025 20.0007 28.3334 16.2697 28.3334 11.6673C28.3334 7.06494 24.6025 3.33398 20.0001 3.33398C15.3977 3.33398 11.6667 7.06494 11.6667 11.6673C11.6667 16.2697 15.3977 20.0007 20.0001 20.0007Z" fill="#7A007A"/>
</g>
</g>
</g>
</svg>
